<?xml version="1.0" encoding="utf-8"?>
<!-- Generator: Adobe Illustrator 22.1.0, SVG Export Plug-In . SVG Version: 6.00 Build 0)  -->
<svg version="1.1" id="Layer_2" xmlns="http://www.w3.org/2000/svg" xmlns:xlink="http://www.w3.org/1999/xlink" x="0px" y="0px"
	 viewBox="0 0 685 700" style="enable-background:new 0 0 685 700;" xml:space="preserve">
<style type="text/css">
	.st0{fill-rule:evenodd;clip-rule:evenodd;fill:#0059AA;}
</style>
<g>
	<path class="st0" d="M449,358l-228.5,0.2l10.8,7.3c8.3,5.6,11.2,10.1,11.2,12.3v144.1c0,21.5,2.6,36,36.8,40.7
		c7.4,1,14.3,1.5,20.3,1.9c19.4,1.4,31,2.2,38.6,17.8l3.5,7.2l3.7-7.1c7.7-14.9,26.1-16.5,45.6-18.3c7.4-0.7,15-1.3,21.8-2.8
		c12.6-2.8,27.5-11.9,27.5-39.5l0-12.8c0-33.9,0-123.8,0-131.3c0-1.9,0-5.8,10.8-12.4l12.2-7.4L449,358L449,358z M250.5,429.1h181.8
		c0,20.4,0,43.2,0,61.1H250.5V429.1L250.5,429.1z M432.3,521.9c0,17.9-7.1,28.5-21.2,31.6c-6.3,1.4-13.4,2-20.8,2.7
		c-17.6,1.6-37.2,3.4-48.2,16.8c-9.7-14.2-24.1-15.2-41.8-16.5c-5.9-0.4-12.6-0.9-19.8-1.9c-29.9-4.2-29.9-14.9-29.9-32.8v-25.3
		h181.8c0,4.7,0,8.9,0,12.5L432.3,521.9L432.3,521.9z M19,359c0,178.7,145.3,324,324,324c178.7,0,324-145.3,324-324
		c0-178.7-145.3-324-324-324C164.3,35,19,180.3,19,359L19,359L19,359z M28.6,359c0-173.4,141-314.4,314.4-314.4
		c173.4,0,314.4,141,314.4,314.4c0,173.4-141,314.4-314.4,314.4C169.6,673.4,28.6,532.4,28.6,359L28.6,359L28.6,359z M90.3,358.8
		c0,138.6,112.8,251.3,251.3,251.3c138.6,0,251.3-112.8,251.3-251.3S480.2,107.5,341.6,107.5C203,107.5,90.3,220.2,90.3,358.8
		L90.3,358.8L90.3,358.8z M99.9,358.8c0-133.3,108.4-241.7,241.7-241.7s241.7,108.4,241.7,241.7c0,133.3-108.4,241.7-241.7,241.7
		S99.9,492.1,99.9,358.8L99.9,358.8L99.9,358.8z M347.6,456.6c8.9-6.1,16.6-11.3,16.6-11.3l-2.7-4l-16.6,11.3l0,0l0,0l-31.7,21.7
		l-6.4,4.4H363v-4.8c0,0-1.3,0-3.5,0L347.6,456.6L347.6,456.6L347.6,456.6z M353.7,473.9c-4.7,0-10.7,0-16.3,0
		c2.4-3.8,6-9.7,7.8-12.5C347,464.2,351,470.1,353.7,473.9L353.7,473.9L353.7,473.9z M338.6,462.8l-6.9,11.1c-3.7,0-7,0-9.4,0
		C325.7,471.6,332,467.3,338.6,462.8L338.6,462.8L338.6,462.8z M282.3,434.9c-11.6,0-21.1,9.5-21.1,21.1c0,11.6,9.5,21.1,21.1,21.1
		c11.6,0,21.1-9.5,21.1-21.1C303.5,444.3,294,434.9,282.3,434.9L282.3,434.9L282.3,434.9z M287.7,453.9c0-0.1-0.1-0.3-0.1-0.4
		c1.4-1.3,6-4.9,10.3-2.6c0.5,1.6,0.8,3.2,0.8,5c0,1-0.1,2-0.3,3C295.6,455.7,291,454.3,287.7,453.9L287.7,453.9L287.7,453.9z
		 M279,472c-2.8-0.6-5.4-1.9-7.5-3.8c4.4-0.6,7.9-4,9.7-6.8c0.3,0.1,0.5,0.1,0.8,0.1C282.7,463.9,283.7,469.9,279,472L279,472
		L279,472z M266,456c0-1.5,0.2-3,0.6-4.3c2.4,3.6,7,5.4,10.4,6c0.1,0.3,0.2,0.6,0.4,0.9c-0.9,1.3-4.9,6.8-9.9,4.2
		C266.5,460.7,266,458.4,266,456L266,456L266,456z M294.8,445.4c-4.5,0.1-8.6,2.8-10.8,4.9c-0.5-0.1-0.9-0.2-1.4-0.2l0.1-0.1
		c-0.4-0.7-3.8-6.7,0.5-10.3C287.8,439.9,291.9,442.1,294.8,445.4L294.8,445.4L294.8,445.4z M276.8,440.6c-1.4,4.1-0.1,8.5,1.4,11.3
		c-0.3,0.3-0.5,0.6-0.7,0.9c-2.6-0.6-8-2.3-7.8-7.2C271.6,443.4,274,441.7,276.8,440.6L276.8,440.6L276.8,440.6z M285.8,471.9
		c2.2-4,1.7-9,0.7-12.3c0.3-0.3,0.5-0.6,0.7-0.9c2.1,0.2,8.1,1.3,8.7,6.3C293.6,468.5,290,471,285.8,471.9L285.8,471.9L285.8,471.9z
		 M262,477c0-2.1,1.7-3.8,3.8-3.8c2.1,0,3.8,1.7,3.8,3.8c0,2.1-1.7,3.8-3.8,3.8C263.7,480.7,262,479,262,477L262,477L262,477
		L262,477z M294.9,477c0-2.1,1.7-3.8,3.8-3.8c2.1,0,3.8,1.7,3.8,3.8c0,2.1-1.7,3.8-3.8,3.8C296.6,480.8,294.9,479.1,294.9,477
		L294.9,477L294.9,477L294.9,477z M398.5,459.2c0-2.1,1.7-3.8,3.8-3.8c2.1,0,3.8,1.7,3.8,3.8c0,2.1-1.7,3.8-3.8,3.8
		C400.2,463,398.5,461.3,398.5,459.2L398.5,459.2L398.5,459.2L398.5,459.2z M372.5,448c0-2.1,1.7-3.8,3.8-3.8c2.1,0,3.8,1.7,3.8,3.8
		c0,2.1-1.7,3.8-3.8,3.8C374.2,451.8,372.5,450.1,372.5,448L372.5,448L372.5,448L372.5,448z M370,466.7c0-2.1,1.7-3.8,3.8-3.8
		c2.1,0,3.8,1.7,3.8,3.8c0,2.1-1.7,3.8-3.8,3.8C371.7,470.5,370,468.8,370,466.7L370,466.7L370,466.7L370,466.7z M379.1,456.2v22.8
		h48.3l-48.3-26.8V456.2L379.1,456.2L379.1,456.2z M383.9,460.2c4.4,2.4,16.4,9.1,25,13.9c-9.4,0-22,0-25,0
		C383.9,471.2,383.9,464.7,383.9,460.2L383.9,460.2L383.9,460.2z M407.4,514.9c-1,0-1.9,0.4-2.6,1l-40-6.1l-2-0.3
		c-12.9-2-25.2-3.9-35.6-1.6c-8,1.8-15.2,5.5-18.6,7.5c-4.7-6.8-10.4-13.1-16.4-14c-7.8-1.1-17,3.4-20,5.7l2.9,3.8
		c2-1.5,10.1-5.7,16.4-4.8c6.7,1,14.5,13.8,19.2,21.4l2.9,4.5c-0.3,0.6-0.5,1.3-0.6,2c0,0.2,0,0.4,0,0.6c0,4.5,4.2,5.4,8.6,6.3
		c3.2,0.7,7.1,1.5,11.9,3.6c4.5,2,7.4,4.6,9.1,6.2c1.3,1.2,2.8,2.6,4.6,1.4c2.7-1.8,2.7-1.8,5.2-2.5l7.9-2.1l-5-2.9
		c-0.1-0.1-12.5-7.3-17.4-17.7c-0.7-1.6-2.4-2.5-4.9-2.7c1.3-4.3,4.8-11.9,13.7-12.1l0-0.1c2.7,0.3,5.5,0.6,8.4,1.1v5.1
		c-1.1,1.3-2.2,3.2-2,4.3c0.6,3.4,14,9.7,12.9,4.8c-0.5-2.2-2.4-4.7-6.2-8.2v-5.3c0.8,0.1,1.5,0.2,2.2,0.3l2,0.3l28.4,4.3v7h0
		c-1.3,0.9-2.2,2.4-2.2,4.1c0,2.7,2.2,4.9,4.9,4.9c2.7,0,4.9-2.2,4.9-4.9c0-2-1.1-3.6-2.8-4.4v-6l6.6,1c0.6,1.3,2,2.2,3.5,2.2
		c2.2,0,4-1.8,4-4S409.6,514.9,407.4,514.9L407.4,514.9L407.4,514.9z M348.4,546c-0.8,0.3-1.5,0.7-2.6,1.4c0,0-0.1,0-0.1,0
		c-1.8-1.7-5.2-4.7-10.4-7.1c-5.2-2.3-9.6-3.2-12.8-3.9c-1.9-0.4-4.4-1-4.8-1.5c0,0,0-0.1,0-0.2c0,0,0-0.1,0-0.2
		c0.1-0.3,1.1-1.7,4.9-3.3c5.1-2.1,9.8-2.4,10.9-1.8C337.3,537,344,542.8,348.4,546L348.4,546L348.4,546z M327.8,524.7
		C327.8,524.7,327.7,524.8,327.8,524.7c-2.9,0.5-7.4,1.8-10.6,3.9l-2.3-3.6c-1.1-1.8-2.3-3.7-3.6-5.7c3.2-1.8,9.8-5.2,16.9-6.8
		c2.3-0.5,4.6-0.8,7-0.9C331,515.4,328.7,520.7,327.8,524.7L327.8,524.7L327.8,524.7z M81.8,284.7c2.1,0.8,3.5,1.3,2.7,3.9
		c-0.3,1-0.5,1.8,0.2,2.1c0.7,0.3,1-0.4,1.1-0.8c0.1-0.3,1.7-5.2,2-6.1c0.5-1.3,3.1-7.8,3.6-9.3c4.9-13.3-4.3-21-9.8-23
		c-5-1.8-10.8-1-15.2,2.2c-3.4,2.5-5.8,5.8-8.2,12.4c-1.7,4.8-4.1,13.5-2.7,14.1c0.4,0.1,0.7-0.1,0.8-0.5c0.1-0.4,0.3-2,0.4-2.3
		c0.4-1,1.3-1.4,3.4-0.6L81.8,284.7L81.8,284.7L81.8,284.7L81.8,284.7z M62.3,271.4c-2.9-1-4-1.8-2.9-4.9
		c3.9-10.8,14.3-10.9,20.2-8.8c8.2,3,12.3,11.3,9.8,18.1c-1.4,3.9-3.5,4.2-6.8,3L62.3,271.4L62.3,271.4L62.3,271.4L62.3,271.4z
		 M98.2,242.6c2,1,3.3,1.7,2.1,4.2c-0.4,1.1-0.8,1.8-0.1,2.2c0.7,0.4,1.1-0.2,1.3-0.6c0.2-0.3,0.3-0.7,0.7-1.5c0.4-0.8,1-2,2-4
		l0.3-0.6c0.2-0.3,1.4-2.5,2.9-5.2c1.5-2.8,3.4-6.1,4.7-8.5c0.7-1.4,0.5-2.2-0.4-2.7c-1.7-1.1-4.5-3.3-5.1-3.6
		c-0.3-0.2-0.8-0.2-1,0.2c-0.2,0.4-0.1,0.6,1.1,2.4c3,4.3,1.4,7.3,0.3,9.4c-2.1,4-3.2,4.8-6.6,2.9l-8.3-4.4c-1.4-0.8-1.2-1.2,0-3.5
		c2.1-3.9,2.9-5.3,7.1-4.3c1,0.2,1.4,0.1,1.6-0.3c0.3-0.6-0.4-0.9-0.7-1.1c-0.4-0.2-2.1-1-2.5-1.1c-1.1-0.6-5.8-3.5-6.5-3.9
		c-0.5-0.3-0.8-0.1-1,0.2c-0.1,0.2-0.2,0.5,0.3,1.1c2.1,2.2,2.9,3.2,0.1,8.5c-1.5,2.8-1.9,2.6-3.4,1.8l-7-3.7
		c-2.4-1.3-2.6-1.6-1.4-4c3.6-6.8,6.1-7,7.6-6.9c2.2,0.1,2.5,0.1,2.8-0.4c0.3-0.5-0.3-0.8-0.6-0.9l-4.4-2.3
		c-1.1-0.6-1.5-0.8-1.8-0.2c-0.1,0.1-0.1,0.2-0.7,1.5c-0.6,1.3-1.9,3.8-4.5,8.7l-1.2,2.3c-2.2,4.1-3.3,6.1-3.9,7.2
		c-0.6,1-0.7,1.1-0.7,1.1c-0.2,0.3-0.5,1,0.2,1.3c0.7,0.4,1.1-0.3,1.7-1.3c1.4-2.3,2.7-1.6,4.7-0.6L98.2,242.6L98.2,242.6
		L98.2,242.6L98.2,242.6z M115.1,213.1c1.8,1.3,3,2.1,1.6,4.5c-0.6,1-1,1.6-0.4,2.1c0.7,0.5,1.1-0.1,1.3-0.5c0.6-0.8,3-4.7,3.6-5.5
		c1.1-1.5,2.9-3.8,4-5.3c0.2-0.4,0.7-0.9,0-1.4c-0.7-0.5-1.1,0.1-1.9,1.1c-1.8,2.4-3.1,1.5-4.9,0.2l-8.1-5.6c-0.6-0.4-0.8-0.6-0.5-1
		c0.1-0.2,1.2-1,1.5-1.2c2-1.4,2.8-2.2,3.6-3.3c2.6-3.7,3.5-10.2-1.9-14c-3.2-2.2-9.3-3.6-14.4,3.8c-0.8,1.2-4.2,6.4-5,7.5
		c-0.5,0.7-3,3.8-3.4,4.5c-1,1.5-1.2,1.6-0.5,2.1c0.7,0.5,1.1-0.2,1.8-1c1.7-2.2,2.9-1.3,4.8-0.1L115.1,213.1L115.1,213.1
		L115.1,213.1L115.1,213.1z M99.6,195.1c-2.2-1.5-3.3-2.7-1.5-5.2c2.5-3.6,7.2-4.6,11.1-1.9c4.4,3.1,3.8,7.7,2.1,10.1
		c-0.7,0.9-1.6,2.2-2.6,2.6c-0.6,0.4-0.8,0.3-1.5-0.3L99.6,195.1L99.6,195.1L99.6,195.1L99.6,195.1z M136.5,173.8
		c1-1.1,1.1-1.2,2.7-0.6l6.4,2.6c0.2,0.1,1,0.4,1.4,0.8c0.6,0.5,0.5,1.1-0.4,2.2c-0.6,0.9-1.1,1.6-0.6,2.1c0.6,0.5,1,0,1.4-0.4
		c0.1-0.1,1.8-2.4,4.1-4.8c0.6-0.7,3.8-3.9,4.4-4.6c0.2-0.2,0.8-0.9,0.3-1.4c-0.5-0.5-1-0.1-1.7,0.5c-1.7,1.4-3,1-7.3-0.5l-21-7.5
		c-1.1-0.4-2.6-0.9-4.1-1.6c-2.2-0.9-2.6-1-3-0.6c-0.4,0.4-0.3,0.4,2.3,5.5c4.6,9,10.8,21,12.2,24.6c0.7,2,0.4,2.4-0.6,3.9
		c-0.5,0.7-0.9,1.4-0.4,1.8c0.6,0.5,1.1,0,1.3-0.2c0.5-0.5,2.5-3.1,2.9-3.5c1.1-1.2,3.4-3.4,3.7-3.8c0.8-0.9,1.3-1.4,0.7-1.9
		c-0.5-0.4-1-0.1-2,1c-0.9,0.9-1.9,1.8-2.9,0.9c-0.5-0.4-1.2-1.8-1.4-1.9l-3.1-5.3c-0.8-1.3-0.8-1.3,0.3-2.5L136.5,173.8
		L136.5,173.8L136.5,173.8L136.5,173.8z M131.1,176.9c-0.7,0.7-0.9,1-1.3,0.6c-0.3-0.3-0.6-0.7-0.6-0.9l-4.6-8.7l9.5,3.4
		c0.4,0.1,0.8,0.3,1,0.4c0.1,0.1,0.3,0.3-0.6,1.2L131.1,176.9L131.1,176.9L131.1,176.9L131.1,176.9z M161.1,159.2
		c1.5,1.8,2.4,2.8,0.5,4.7c-0.8,0.8-1.4,1.3-0.9,1.9c0.5,0.6,1,0.1,1.4-0.2c0.8-0.6,4-3.6,4.7-4.2c0.2-0.1,4.3-3.4,5.1-4
		c0.3-0.3,0.9-0.7,0.4-1.3c-0.5-0.6-1.1-0.2-2.1,0.6c-2.2,1.6-3.1,0.5-4.6-1.3l-6.3-7.5c-0.6-0.7-0.7-1,0-1.6
		c1.9-1.6,2.2-1.6,4.6-0.6l13,5.3c1.2,0.5,1.7,0.7,2.4,0.1c0.4-0.3,1.8-1.8,2.1-2.1c0.6-0.5,3.5-2.6,4-3.1c0.3-0.2,0.7-0.6,0.3-1.1
		c-0.5-0.5-0.8-0.3-2.3,0.7c-1.3,0.8-2.8,0.3-4.8-0.5l-10.1-3.8c-2.4-0.9-3.1-0.8-4-0.7c1.2-1.5,4.6-6.1,0.5-11
		c-1.2-1.5-6.1-6-13.5,0.2c-1.2,1-6.7,5.9-7.8,6.8c-0.5,0.4-2.7,2-3.1,2.3c-1.4,1.2-1.5,1.3-1.1,1.9c0.5,0.6,1.1,0.1,2.1-0.6
		c2.1-1.6,3.1-0.5,4.5,1.2L161.1,159.2L161.1,159.2L161.1,159.2L161.1,159.2z M150.4,137.4c-1.4-1.6-2.2-2.7-0.2-4.3
		c5.2-4.3,9.5-0.4,10.7,1.1c4.4,5.2,0.2,8.7-1.3,9.9c-2.1,1.7-2.2,1.7-3.4,0.2L150.4,137.4L150.4,137.4L150.4,137.4L150.4,137.4z
		 M189.4,107.4c-1-1.5-0.7-1.7,1.9-3.3c3-1.9,5.3-3.3,8.8,0.7c0.8,0.9,1.1,0.7,1.4,0.6c0.6-0.4,0.3-1-0.2-1.9l-3.2-5.8
		c-0.7-1.1-1.2-1.8-1.8-1.4c-0.4,0.2-0.3,0.6-0.2,1c0.2,1,0.3,1.8-4.4,4.7l-14.8,9.3c-1,0.6-1.9,1.1-2.9,0c-0.3-0.4-0.6-0.5-1-0.3
		c-0.4,0.3-0.4,0.6-0.2,1.3l2.2,7.7c0.1,0.3,0.2,0.6,0.3,0.8c0.2,0.3,0.6,0.5,1,0.2c0.4-0.3,0.5-0.6,0.5-1.6
		c-0.4-5.9,2.7-7.8,5.4-9.5c0.9-0.6,1.3-0.8,2,0.4l13.4,21.5c1.1,1.8,1.9,3-0.3,4.6c-0.9,0.7-1.5,1.1-1.1,1.8c0.4,0.7,1,0.3,1.4,0.1
		c0.9-0.5,4.5-3.1,5.3-3.6c1.5-1,4-2.3,5.6-3.2c0.4-0.2,1-0.6,0.5-1.3c-0.4-0.7-1.1-0.3-2.1,0.2c-2.4,1.3-3.2,0.1-4.4-1.8
		L189.4,107.4L189.4,107.4L189.4,107.4L189.4,107.4z M240.4,84l0.1,0l9.2,21.6c1,2.4,1.5,3.6-0.8,4.8c-1.5,0.7-1.9,0.9-1.6,1.7
		c0.2,0.6,0.8,0.4,1.2,0.3c1-0.4,3.6-1.7,6.2-2.7c1.9-0.8,4.6-1.6,5.4-1.9c0.5-0.2,1.3-0.5,1-1.2c-0.2-0.6-0.8-0.6-1.9-0.1
		c-2.2,0.9-2.6,0.2-3.9-2.9l-9.4-21.1c-1.2-2.6-1.3-3.3,1-4.4c1.4-0.7,1.8-0.9,1.6-1.5c-0.3-0.7-1-0.4-1.5-0.1
		c-0.6,0.2-1.8,1-2.9,1.4c-1.1,0.4-3.2,1-4.3,1.5c-0.8,0.3-1.3,0.7-1.3,2.6l0.3,23.7l-17-17.6c-1-1-1.4-0.8-1.9-0.6
		c-0.6,0.2-1.6,0.9-3.4,1.6c-1.4,0.6-4.2,1.5-4.8,1.7c-0.8,0.3-1,0.7-0.8,1.1c0.2,0.6,0.6,0.7,2.4,0.1c2.3-0.9,2.4-0.9,3.4,1.6
		c2.7,6.7,7.6,22,7.8,22.3c1.3,3.6,0.7,4.2-0.9,5.1c-1.3,0.8-1.8,1.1-1.5,1.7c0.2,0.6,0.8,0.5,1.1,0.3c0.8-0.3,2.7-1.3,4.5-2
		c2.2-0.9,3.9-1.3,4.6-1.6c0.6-0.2,1.5-0.6,1.2-1.3c-0.3-0.7-1.1-0.4-2.3,0c-2.5,1-3.1,0.9-6.3-7c-2.1-5.2-4.1-11.1-6-16.8l0.1,0
		l19.8,20.2c0.7,0.7,1.2,1,1.7,0.8c0.6-0.2,0.6-0.8,0.5-2.2L240.4,84L240.4,84L240.4,84L240.4,84z M272.1,98.7
		c0.5,2.2,0.9,3.6-1.7,4.4c-1.1,0.4-1.9,0.6-1.7,1.4c0.2,0.8,0.9,0.6,1.3,0.5c0.4-0.1,0.8-0.2,1.6-0.5c0.8-0.3,2.1-0.6,4.3-1.2
		l0.6-0.2c0.3-0.1,2.8-0.6,5.8-1.3c3.1-0.7,6.8-1.6,9.5-2.2c1.5-0.4,1.9-1.1,1.7-2.1c-0.3-2-0.6-5.5-0.8-6.2
		c-0.1-0.3-0.4-0.8-0.8-0.6c-0.5,0.1-0.5,0.4-1,2.4c-1.2,5.1-4.5,5.9-6.8,6.5c-4.4,1.1-5.7,0.8-6.6-2.9l-2.3-9.1
		c-0.4-1.6,0-1.7,2.6-2.3c4.3-1.1,5.8-1.4,7.9,2.4c0.5,0.9,0.9,1.1,1.3,1c0.6-0.2,0.4-0.9,0.4-1.2c-0.1-0.4-0.7-2.2-0.8-2.6
		c-0.3-1.2-1.3-6.7-1.5-7.4c-0.1-0.6-0.4-0.7-0.8-0.6c-0.3,0.1-0.5,0.2-0.6,1c-0.3,3-0.4,4.3-6.3,5.8c-3.1,0.8-3.2,0.3-3.6-1.3
		l-1.9-7.7c-0.7-2.6-0.5-3.1,2.1-3.7c7.5-1.9,9.3-0.2,10.2,1c1.4,1.7,1.6,1.9,2.2,1.8c0.5-0.1,0.4-0.8,0.3-1l-1.2-4.9
		c-0.3-1.2-0.4-1.6-1-1.5c-0.2,0-0.2,0.1-1.6,0.5c-1.4,0.4-4.1,1.1-9.5,2.5l-2.5,0.6c-4.5,1.1-6.8,1.6-7.9,1.9
		c-1.2,0.2-1.2,0.2-1.3,0.2c-0.4,0.1-1.1,0.3-0.9,1c0.2,0.8,0.9,0.7,2.1,0.4c2.7-0.5,3,0.9,3.6,3.1L272.1,98.7L272.1,98.7
		L272.1,98.7L272.1,98.7z M331.4,86.1L311,64.3c-0.4-0.5-1-1.5-2-1.5c-0.7,0.1-2,0.4-3.5,0.5c-1.7,0.2-4.2,0.1-4.8,0.2
		c-1,0.1-1.7,0.2-1.6,0.9c0.1,0.8,0.9,0.7,2.1,0.7c2.4-0.2,2.9,0.3,3.2,4.5l1.6,18c0.6,7.4,0.4,7.6-1.9,8.1
		c-2.3,0.5-2.5,0.5-2.4,1.2c0.1,0.7,0.8,0.6,1,0.6c1-0.1,3.4-0.5,6.2-0.8c1.7-0.1,3.8-0.1,4.4-0.2c0.4,0,1.3-0.1,1.2-0.9
		c-0.1-0.7-0.3-0.7-2.5-0.7c-2.5,0-3.2-0.5-3.9-8.3l-1.8-18.6l0.1-0.1l25.6,26.7c1,1.1,1.4,1.1,1.8,1.1c0.8-0.1,0.7-1.1,0.7-1.6
		l-2.6-28.3c-0.3-3,0.5-3.2,2.5-3.5c1.6-0.2,2.1-0.5,2-1.1c-0.1-0.8-0.8-0.8-1-0.7c-0.9,0.1-5,0.7-5.8,0.7c-0.7,0.1-3.8,0.1-4.4,0.2
		c-0.4,0-1.4,0.1-1.3,0.9c0.1,0.8,0.9,0.7,2.5,0.7c2.2-0.1,2.8-0.1,3.5,6.4l1.7,16.7L331.4,86.1L331.4,86.1L331.4,86.1L331.4,86.1z
		 M366.3,65.7c0.1-1.8,0.4-1.8,3.5-1.6c3.5,0.2,6.2,0.4,6.7,5.7c0.1,1.2,0.5,1.2,0.8,1.3c0.7,0,0.9-0.6,1-1.7l0.8-6.6
		c0.1-1.3,0.2-2.2-0.6-2.2c-0.4,0-0.6,0.3-0.8,0.7c-0.4,0.9-0.8,1.6-6.4,1.2l-17.4-1.2c-1.2-0.1-2.2-0.2-2.3-1.7
		c0-0.5-0.2-0.8-0.6-0.8c-0.5,0-0.7,0.3-0.9,0.9l-2.8,7.5c-0.1,0.3-0.2,0.6-0.2,0.9c0,0.3,0.2,0.7,0.7,0.8c0.5,0,0.8-0.2,1.3-1
		c3.1-5,6.7-4.7,10-4.5c1.1,0.1,1.5,0.1,1.4,1.5l-1.8,25.2c-0.1,2.1-0.2,3.6-3,3.6c-1.1,0-1.9,0-2,0.8c-0.1,0.8,0.6,0.9,1.1,0.9
		c1,0.1,5.4,0.2,6.4,0.2c1.8,0.1,4.6,0.5,6.4,0.7c0.4,0,1.1,0.1,1.2-0.7c0.1-0.8-0.7-0.9-1.8-1.1c-2.7-0.4-2.6-1.8-2.4-4L366.3,65.7
		L366.3,65.7L366.3,65.7L366.3,65.7z M443.8,95.5c2.7-8.9-2.9-18.5-12.7-21.4c-10.1-3.1-20.1,1.7-23,11.1c-3,9.9,3.6,19.4,12.7,22.1
		C429.7,109.9,440.7,105.6,443.8,95.5L443.8,95.5L443.8,95.5L443.8,95.5z M437.5,93.8c-2.3,7.5-8.6,14.4-15.8,12.2
		c-7-2.1-9.5-11.7-6.9-20.1c2.3-7.4,8.1-12.9,15.4-10.7C438.4,77.7,439.4,87.6,437.5,93.8L437.5,93.8L437.5,93.8L437.5,93.8z
		 M452.7,112.6c-0.9,2-1.5,3.3-4.1,2.4c-1.1-0.4-1.8-0.7-2.1,0c-0.3,0.7,0.3,1,0.7,1.2c1.6,0.8,4.3,1.8,6,2.5c1.7,0.8,4.2,2.2,5.9,3
		c0.4,0.2,1,0.5,1.4-0.2c0.3-0.7-0.3-1.1-1.7-1.8c-2.2-1.2-1.5-2.7-0.6-4.6l3.9-8.4c1.1-2.3,1.1-2.3,4.7-0.6c1.2,0.6,4.4,2,3.8,5
		c0,0.3-0.3,1.8-0.3,2.1c-0.1,0.4-0.1,0.9,0.4,1.2c0.6,0.3,0.9-0.3,1-0.7l0.9-2.4c0.4-1.2,0.8-2,1-2.5c0.3-0.7,2.1-4,2.4-4.7
		c0.2-0.5,0.3-0.9-0.2-1.1c-0.5-0.2-0.9,0.1-1.2,0.4c-2,2.1-3,3-7,1.2c-0.7-0.3-2.3-1.1-3-1.5c-0.6-0.4-0.7-0.5,0.5-3.2l3.1-6.6
		c1.1-2.3,2-2,3.6-1.2c7.2,3.4,7.3,5.4,7.2,8.6c0,0.3,0,1.2,0.5,1.4c0.5,0.3,0.9-0.5,1-0.7l2.4-5.2c0.3-0.6,0.4-0.9-0.4-1.3
		c0,0-0.1,0-1.5-0.6c-1.3-0.5-3.9-1.7-9-4.1l-0.6-0.3c-4.9-2.3-7.3-3.5-8.5-4.1c-1.2-0.6-1.2-0.7-1.3-0.7c-0.3-0.2-1-0.5-1.3,0.2
		c-0.3,0.7,0.4,1.1,1.4,1.7c2.4,1.3,1.8,2.6,0.8,4.6L452.7,112.6L452.7,112.6L452.7,112.6L452.7,112.6z M498.6,138.5
		c-1.3,1.8-2.2,3-4.5,1.5c-0.9-0.6-1.6-1-2.1-0.4c-0.4,0.6,0.1,1,0.4,1.3c0.4,0.3,0.6,0.1,8,5.5c10,7.3,9.8,7.4,10.2,7.7
		c0.8,0.6,1.2,0.5,1.9-0.3c0.6-0.7,4-4.2,4.3-4.6c0.3-0.4,0.4-0.8-0.1-1.1c-0.3-0.2-0.6-0.1-1,0.1c-5.6,2.7-9,0.8-11.1-0.7
		c-2.7-2-2.4-4.1-0.4-6.8l12.8-17.6c1.2-1.7,2.2-2.8,4.5-1.3c0.9,0.6,1.6,1,2.1,0.4c0.4-0.6-0.1-1-0.5-1.3c-0.8-0.6-2.5-1.6-5.3-3.6
		c-2.3-1.7-4.5-3.5-5.2-4.1c-0.4-0.3-0.9-0.7-1.4-0.1c-0.5,0.7,0.1,1.2,1,1.9c2.1,1.8,1.3,3,0,4.8L498.6,138.5L498.6,138.5
		L498.6,138.5L498.6,138.5z M538.1,162.6c1,1,1.2,1.2,0.4,2.7l-3,6.3c-0.1,0.2-0.5,1-0.8,1.4c-0.6,0.6-1.1,0.4-2.2-0.5
		c-0.8-0.7-1.6-1.2-2.1-0.7c-0.5,0.5,0,1,0.3,1.4c0.1,0.1,2.3,2,4.6,4.3c0.7,0.7,3.7,4,4.3,4.7c0.2,0.2,0.9,0.9,1.4,0.4
		s0.2-1-0.4-1.7c-1.3-1.8-0.9-3,0.8-7.2l8.6-20.6c0.4-1,1.1-2.5,1.8-4c1-2.2,1.2-2.5,0.7-3c-0.4-0.4-0.4-0.3-5.6,2
		c-9.2,4.1-21.6,9.7-25.2,10.9c-2.1,0.6-2.5,0.3-3.8-0.8c-0.7-0.5-1.3-1-1.8-0.5c-0.6,0.6-0.1,1.1,0.2,1.3c0.5,0.5,2.9,2.6,3.3,3
		c1.1,1.1,3.2,3.5,3.6,3.9c0.9,0.9,1.3,1.3,1.9,0.8c0.5-0.5,0.1-1-0.8-2.1c-0.8-0.9-1.7-2-0.8-2.9c0.5-0.5,1.8-1.2,2-1.3l5.4-2.8
		c1.3-0.7,1.3-0.7,2.5,0.5L538.1,162.6L538.1,162.6L538.1,162.6L538.1,162.6z M535.3,156.9c-0.7-0.7-0.9-0.9-0.5-1.3
		c0.3-0.3,0.8-0.5,0.9-0.6l8.9-4.1l-3.9,9.3c-0.1,0.3-0.3,0.8-0.5,1c-0.1,0.1-0.3,0.3-1.2-0.6L535.3,156.9L535.3,156.9L535.3,156.9
		L535.3,156.9z M551.8,187.3c-1.8,1.4-3,2.2-4.8,0.2c-0.7-0.9-1.3-1.5-1.9-1c-0.7,0.5-0.2,1.1,0,1.4c0.6,0.8,4.2,5.2,4.2,5.2
		c0.9,1.3,5.4,7.6,5.8,8c6.5,8.6,13.6,4.4,15.1,3.3c1.4-1.1,2.7-2.6,3.2-4.7c1-3.5-0.7-6-2.1-8l0.1-0.1c1.5,1.4,5.7,5,10.2,1.6
		c6.5-4.9-0.3-13.9-1.9-16.1c0,0-4.9-6.4-7.3-8.9c-0.8-0.8-1.5-1.3-2-0.9c-0.5,0.4-0.1,0.9,0,1c0.1,0.1,0.3,0.4,0.7,0.8
		c1.5,2,1.3,2.5-2.3,5.2L551.8,187.3L551.8,187.3L551.8,187.3L551.8,187.3z M567.3,185c-1-1.3-0.3-1.9,0.4-2.4l7-5.3
		c1.1-0.9,2.1-1.6,4.2,1.1c2.8,3.8,2.6,7.2-0.9,9.9c-1.6,1.2-5.7,3.4-9.4-1.6L567.3,185L567.3,185L567.3,185L567.3,185z
		 M563.4,185.9c1.5-1.1,1.8-1.3,4,1.6c1,1.3,5.2,7.1-1.5,12.2c-1.9,1.4-5.1,2.7-8.2,1.2c-1.4-0.7-2.7-2.4-3-2.7
		c-2.4-3.2-1-5,2.6-7.8L563.4,185.9L563.4,185.9L563.4,185.9L563.4,185.9z M600.7,241.2c8.2-4.5,10.7-15.3,5.8-24.2
		c-5.1-9.2-15.7-12.8-24.2-8c-9.1,5-10.9,16.4-6.3,24.7C580.5,241.8,591.5,246.3,600.7,241.2L600.7,241.2L600.7,241.2L600.7,241.2z
		 M597.3,235.6c-6.9,3.8-16.2,4.4-19.9-2.2c-3.6-6.4,1.3-15,9-19.3c6.8-3.7,14.8-3.7,18.5,3C609.1,224.6,603,232.5,597.3,235.6
		L597.3,235.6L597.3,235.6L597.3,235.6z M595.3,260.3c-2.2,0.7-3.5,1.2-4.6-1.2c-0.4-1.1-0.7-1.8-1.5-1.6c-0.8,0.3-0.5,0.9-0.3,1.3
		c0.3,0.9,2,5,2.3,5.9c0.1,0.2,1.6,5.3,1.9,6.2c0.1,0.4,0.3,1.1,1,0.9c0.8-0.3,0.6-1,0.2-2.2c-0.7-2.6,0.7-3.1,2.8-3.8l9.3-3.2
		c0.9-0.3,1.2-0.3,1.5,0.6c0.8,2.3,0.7,2.6-1.1,4.5l-9.6,10.3c-0.9,0.9-1.3,1.3-1,2.2c0.2,0.5,1,2.3,1.2,2.7
		c0.3,0.8,1.2,4.2,1.4,4.9c0.1,0.4,0.4,0.9,0.9,0.7c0.7-0.2,0.6-0.7,0.2-2.4c-0.3-1.5,0.7-2.7,2.2-4.3l7.1-8c1.8-1.9,1.8-2.6,2-3.5
		c1,1.6,4,6.5,10,4.4c1.8-0.6,7.8-3.6,4.7-12.7c-0.5-1.5-3.1-8.3-3.6-9.7c-0.2-0.6-0.9-3.2-1.1-3.7c-0.6-1.7-0.7-1.9-1.4-1.7
		c-0.7,0.2-0.5,1-0.2,2.1c0.7,2.6-0.7,3.1-2.8,3.8L595.3,260.3L595.3,260.3L595.3,260.3L595.3,260.3z M619.5,258.1
		c2-0.7,3.3-1.1,4.1,1.3c2.2,6.4-3.1,9-4.9,9.6c-6.4,2.2-8.2-2.9-8.8-4.7c-0.9-2.6-0.8-2.6,1-3.2L619.5,258.1L619.5,258.1
		L619.5,258.1L619.5,258.1z M61.8,429c-3.2,0.6-9,1.1-10.7-7.4c-1.8-9.1,4.8-10.4,8.5-11.1l16.7-3.2c2.1-0.4,3.5-0.7,4.2,2.1
		c0.3,1.1,0.5,1.8,1.2,1.7c0.8-0.2,0.7-0.8,0.6-1.2c-0.1-0.3-0.8-2.7-1.5-6.4c-0.7-3.7-0.9-5.8-1-6.3c-0.1-0.4-0.2-1.1-1-1
		c-0.8,0.2-0.7,1-0.5,2.1c0.4,2.7-1.1,3-3.3,3.4L57.7,405c-9,1.7-9.6,8.9-8.2,16.1c2.3,12,10,10.5,13,9.9l16.7-3.2
		c4.4-0.9,4.9-0.3,5.5,2.1c0.2,0.7,0.4,1.7,1.2,1.5c0.2,0,0.7-0.3,0.6-1.1c-0.1-0.7-0.8-3.1-1.2-5.1c-0.5-2.5-0.5-3.7-0.7-4.5
		c-0.1-0.5-0.2-1.2-0.9-1.1c-0.7,0.1-0.7,0.8-0.5,1.9c0.3,2.9-0.2,3.5-4.6,4.3L61.8,429L61.8,429L61.8,429L61.8,429z M75.3,473.8
		l15.4-25.7c0.3-0.5,1.2-1.4,0.9-2.3c-0.3-0.7-0.9-1.8-1.5-3.2c-0.6-1.6-1.3-4-1.5-4.5c-0.4-0.9-0.7-1.6-1.3-1.3
		c-0.8,0.3-0.4,1.1-0.1,2.2c0.9,2.3,0.5,2.8-3.4,4.3l-16.9,6.5c-6.9,2.7-7.2,2.5-8.3,0.4c-1.1-2-1.2-2.2-1.8-2
		c-0.7,0.3-0.4,1-0.3,1.1c0.4,0.9,1.4,3.1,2.4,5.7c0.6,1.6,1.1,3.6,1.4,4.2c0.2,0.4,0.5,1.2,1.2,0.9c0.7-0.3,0.6-0.5-0.1-2.6
		c-0.7-2.4-0.4-3.2,6.9-6l17.4-6.9l0.1,0.1l-18.6,32c-0.8,1.3-0.7,1.7-0.5,2.1c0.3,0.8,1.3,0.4,1.8,0.2l26.5-10.3
		c2.8-1.1,3.2-0.4,4.1,1.4c0.7,1.4,1,1.9,1.6,1.6c0.8-0.3,0.5-1,0.4-1.2c-0.3-0.9-2-4.6-2.3-5.4c-0.3-0.7-1.1-3.6-1.4-4.1
		c-0.1-0.4-0.5-1.3-1.2-1c-0.7,0.3-0.5,1.1,0.1,2.6c0.7,2.1,0.9,2.6-5.2,5.1l-15.6,6.2L75.3,473.8L75.3,473.8L75.3,473.8L75.3,473.8
		z M103.6,487c1.9-1,3.1-1.7,4.6,0.6c0.6,1,1,1.7,1.7,1.3c0.7-0.4,0.4-1,0.2-1.4c-0.4-0.7-1.4-2.2-3.2-5.6c-1.6-2.9-2.3-4.8-2.8-5.8
		c-0.2-0.4-0.5-1-1.2-0.7c-0.7,0.4-0.4,1.1,0.1,2.2c1.1,2.5-0.2,3.2-2.2,4.2l-20.3,10.8c-2,1-3.2,1.7-4.7-0.6c-0.6-1-1-1.7-1.7-1.3
		c-0.7,0.4-0.4,1-0.2,1.4c0.3,0.5,1.7,2.8,3.2,5.5c1.7,3.2,2.3,4.9,2.9,5.9c0.2,0.4,0.5,1,1.2,0.7c0.7-0.4,0.4-1.1-0.1-2.2
		c-1.1-2.5,0.2-3.2,2.2-4.2L103.6,487L103.6,487L103.6,487L103.6,487z M119.2,510.1c1.5-1,1.7-0.7,3.3,1.9c1.9,3,3.4,5.2-0.5,8.8
		c-0.8,0.8-0.7,1.2-0.5,1.4c0.4,0.6,1,0.3,1.9-0.2l5.8-3.3c1.1-0.7,1.8-1.2,1.4-1.8c-0.2-0.4-0.6-0.3-1.1-0.2
		c-1,0.2-1.8,0.4-4.8-4.3l-9.5-14.6c-0.7-1-1.1-1.9-0.1-2.9c0.4-0.3,0.5-0.6,0.3-1c-0.3-0.4-0.6-0.4-1.3-0.2l-7.6,2.3
		c-0.3,0.1-0.6,0.2-0.8,0.3c-0.3,0.2-0.4,0.6-0.2,1c0.3,0.4,0.6,0.5,1.6,0.5c5.8-0.5,7.8,2.5,9.6,5.3c0.6,0.9,0.8,1.3-0.4,2
		l-21.2,13.8c-1.8,1.2-3,2-4.6-0.2c-0.7-0.9-1.2-1.5-1.8-1.1c-0.7,0.4-0.3,1-0.1,1.4c0.6,0.9,3.1,4.4,3.6,5.2c1,1.5,2.3,4,3.3,5.5
		c0.2,0.4,0.6,1,1.3,0.5c0.7-0.4,0.3-1.1-0.3-2.1c-1.3-2.4-0.1-3.2,1.8-4.4L119.2,510.1L119.2,510.1L119.2,510.1L119.2,510.1z
		 M113.6,544.6c-1.7,1.4-2.8,2.4-4.7,0.4c-0.8-0.8-1.4-1.4-2-0.9c-0.6,0.5-0.2,1.1,0.1,1.4c0.2,0.3,0.6,0.6,1.2,1.2
		c0.6,0.6,1.5,1.6,3,3.3l0.4,0.5c0.2,0.2,1.8,2.2,3.8,4.7c2,2.5,4.4,5.4,6.2,7.5c1,1.2,1.8,1.2,2.6,0.6c1.6-1.2,4.7-2.9,5.2-3.4
		c0.2-0.2,0.5-0.7,0.2-1c-0.3-0.4-0.6-0.3-2.6,0.2c-5.1,1.1-7.2-1.4-8.8-3.3c-2.9-3.5-3.2-4.8-0.3-7.2l7.2-6c1.2-1,1.5-0.7,3.2,1.3
		c2.9,3.4,3.8,4.6,1.3,8.2c-0.6,0.9-0.6,1.3-0.3,1.6c0.4,0.5,1,0,1.3-0.2c0.3-0.3,1.7-1.6,2-1.9c0.9-0.8,5.5-4.1,6-4.6
		c0.5-0.4,0.4-0.7,0.2-0.9c-0.2-0.2-0.4-0.3-1.1-0.1c-2.8,1.1-4.1,1.5-8-3.1c-2-2.4-1.7-2.7-0.4-3.8l6-5.1c2.1-1.7,2.5-1.8,4.3,0.3
		c5,5.9,4.2,8.2,3.6,9.7c-0.9,2-1,2.3-0.6,2.7c0.4,0.4,0.9,0,1.1-0.2l3.8-3.2c1-0.8,1.3-1.1,0.9-1.6c-0.1-0.1-0.2-0.1-1.1-1.2
		c-1-1.1-2.8-3.2-6.4-7.5l-1.7-2c-3-3.5-4.4-5.4-5.2-6.3c-0.7-1-0.7-1-0.8-1.1c-0.2-0.3-0.7-0.8-1.3-0.3c-0.6,0.5-0.2,1.1,0.5,2.1
		c1.6,2.2,0.5,3.1-1.2,4.6L113.6,544.6L113.6,544.6L113.6,544.6L113.6,544.6z M137.3,571c-1.5,1.7-2.5,2.8-4.6,1
		c-0.8-0.7-1.5-1.2-2-0.6c-0.5,0.6,0,1,0.3,1.3c0.2,0.2,4.2,3.5,4.9,4.1c1,0.9,6.1,5.8,7.3,6.8c10.6,9.5,21.1,3.8,25-0.5
		c3.5-3.9,5-9.7,3.7-14.9c-1-4.1-3.2-7.5-8.4-12.2c-3.8-3.4-11-8.9-12-7.8c-0.3,0.3-0.2,0.6,0.2,1c0.3,0.3,1.7,1,2,1.2
		c0.8,0.7,0.8,1.7-0.7,3.4L137.3,571L137.3,571L137.3,571L137.3,571z M156.8,558c2-2.3,3.2-3,5.6-0.8c8.6,7.7,4.8,17.4,0.6,22
		c-5.8,6.5-15.1,7.1-20.4,2.3c-3.1-2.8-2.5-4.8-0.2-7.4L156.8,558L156.8,558L156.8,558L156.8,558z M205.4,615.1
		c3.2-5.3-0.4-10.5-2.3-13.2c-2.8-3.8-4.8-6.6-2.8-9.9c1.1-1.8,3.9-3.7,7.8-1.4c3.9,2.3,3.1,5.5,2.6,7.6c-0.4,1.7-0.4,2.1,0.1,2.4
		c0.7,0.4,0.9,0,1.5-1c2.5-4.1,2.7-4.5,2.4-5.2c-0.5-0.7-2.8-3.1-5.5-4.7c-5.9-3.6-11.4-1.8-14,2.5c-3,4.9-0.4,9,2.4,12.9
		c2.4,3.6,4.5,7.2,2.4,10.9c-2.3,3.8-6.7,3-8.7,1.8c-3.3-2-4.7-6.8-3.1-11.5c0.2-0.5,0.2-0.9-0.2-1.2c-0.6-0.3-1,0.3-1.1,0.5
		c-1.1,1.6-2.5,3.9-2.7,4.1c-0.7,1.2-1,1.8-0.8,2.5c0.5,1.1,2.7,4.1,6.3,6.3C195.8,622.3,202.3,620.2,205.4,615.1L205.4,615.1
		L205.4,615.1L205.4,615.1z M237.6,608.5c0.7-1.6,1-1.5,3.8-0.3c3.2,1.4,5.7,2.5,4.4,7.7c-0.3,1.1,0.1,1.3,0.3,1.4
		c0.6,0.3,1-0.3,1.5-1.2l3-5.9c0.5-1.2,0.9-2,0.2-2.3c-0.4-0.2-0.7,0.1-1,0.4c-0.7,0.7-1.3,1.3-6.4-1l-16-7.1
		c-1.1-0.5-2-0.9-1.6-2.4c0.1-0.5,0.1-0.8-0.3-1c-0.4-0.2-0.7,0-1.1,0.6l-5.2,6.1c-0.2,0.2-0.4,0.5-0.5,0.7c-0.1,0.3,0,0.8,0.4,0.9
		c0.4,0.2,0.8,0.1,1.6-0.5c4.6-3.6,7.9-2.1,10.9-0.8c1,0.4,1.4,0.6,0.8,1.9l-10.3,23.1c-0.9,1.9-1.5,3.3-4,2.3
		c-1.1-0.4-1.8-0.6-2.1,0.1c-0.3,0.7,0.3,1,0.7,1.2c0.9,0.4,5.1,2,5.9,2.4c1.6,0.7,4.1,2.1,5.8,2.8c0.4,0.2,1,0.5,1.4-0.3
		c0.3-0.7-0.3-1.1-1.4-1.6c-2.4-1.3-1.8-2.6-0.9-4.6L237.6,608.5L237.6,608.5L237.6,608.5L237.6,608.5z M261.2,635.9
		c1.4,0.4,1.6,0.5,1.7,2.2l0.3,6.9c0,0.2,0.1,1.1-0.1,1.6c-0.2,0.8-0.8,0.9-2.2,0.6c-1.1-0.2-2-0.3-2.2,0.4c-0.2,0.7,0.5,0.9,1,1.1
		c0.2,0,2.9,0.7,6.1,1.6c0.9,0.3,5.1,1.8,6,2.1c0.3,0.1,1.2,0.4,1.4-0.3c0.2-0.7-0.3-1-1.2-1.3c-2-1-2.2-2.3-2.6-6.8l-2.1-22.2
		c-0.1-1.1-0.2-2.7-0.3-4.4c-0.1-2.4-0.2-2.8-0.7-3c-0.5-0.2-0.5-0.1-4,4.3c-6.2,7.9-14.5,18.7-17.1,21.4c-1.5,1.5-2,1.4-3.8,1.1
		c-0.9-0.2-1.6-0.3-1.8,0.4c-0.2,0.8,0.4,1,0.8,1.1c0.7,0.2,3.8,0.9,4.4,1.1c1.5,0.5,4.5,1.6,5,1.8c1.2,0.4,1.8,0.6,2-0.2
		c0.2-0.6-0.4-1-1.7-1.4c-1.2-0.4-2.4-0.9-2.1-2.2c0.2-0.6,1.1-1.9,1.1-2l3.5-5c0.8-1.2,0.8-1.2,2.4-0.7L261.2,635.9L261.2,635.9
		L261.2,635.9L261.2,635.9z M256.1,632.2c-0.9-0.3-1.2-0.4-1.1-0.9c0.1-0.4,0.4-0.8,0.5-0.9l5.9-7.8l0.9,10.1c0.1,0.4,0.1,0.8,0,1.1
		c0,0.2-0.1,0.4-1.3,0L256.1,632.2L256.1,632.2L256.1,632.2L256.1,632.2z M300.7,626.7c0.3-1.8,0.6-1.7,3.6-1.2
		c3.5,0.6,6.1,1.1,6.1,6.4c0,1.2,0.4,1.3,0.6,1.3c0.7,0.1,0.9-0.5,1.2-1.6l1.5-6.5c0.2-1.3,0.4-2.1-0.4-2.3
		c-0.4-0.1-0.6,0.2-0.9,0.6c-0.5,0.9-0.9,1.5-6.5,0.6l-17.2-3c-1.2-0.2-2.1-0.4-2.1-1.9c0-0.5-0.1-0.8-0.5-0.9
		c-0.5-0.1-0.7,0.2-1,0.8l-3.5,7.2c-0.1,0.3-0.3,0.6-0.3,0.8c-0.1,0.3,0.1,0.7,0.6,0.8c0.5,0.1,0.8-0.1,1.4-0.9
		c3.6-4.6,7.2-4,10.4-3.4c1.1,0.2,1.5,0.3,1.3,1.7l-4.4,24.9c-0.4,2.1-0.6,3.5-3.3,3.2c-1.1-0.1-1.9-0.2-2,0.6c-0.1,0.8,0.6,0.9,1,1
		c1,0.2,5.4,0.7,6.3,0.9c1.8,0.3,4.5,1,6.3,1.3c0.4,0.1,1.1,0.2,1.3-0.6c0.1-0.8-0.6-1-1.7-1.2c-2.6-0.6-2.4-2.1-2-4.3L300.7,626.7
		L300.7,626.7L300.7,626.7L300.7,626.7z M322.7,654c-0.1,2.2-0.1,3.7-2.9,3.8c-1.1,0.1-2,0.1-2,0.9c0,0.8,0.7,0.8,1.1,0.9
		c0.4,0,0.8,0,1.7,0c0.9,0,2.2,0,4.5,0l0.7,0c0.3,0,2.9,0.2,6,0.3c3.2,0.2,7,0.4,9.7,0.5c1.6,0.1,2.1-0.5,2.2-1.6c0.2-2,1-5.5,1-6.2
		c0-0.3-0.1-0.8-0.6-0.8c-0.5,0-0.6,0.2-1.6,2.1c-2.6,4.5-5.9,4.4-8.3,4.3c-4.6-0.2-5.7-0.8-5.6-4.7l0.3-9.4
		c0.1-1.6,0.5-1.6,3.1-1.5c4.5,0.2,6,0.3,7,4.5c0.2,1,0.6,1.3,1,1.3c0.7,0,0.7-0.7,0.7-1.1c0-0.4-0.1-2.3-0.1-2.7
		c0-1.2,0.6-6.8,0.6-7.5c0-0.6-0.2-0.8-0.6-0.8c-0.3,0-0.5,0.1-0.8,0.8c-1.1,2.8-1.6,4-7.6,3.8c-3.2-0.1-3.1-0.5-3.1-2.3l0.3-7.9
		c0.1-2.7,0.3-3.1,3-3c7.7,0.3,9,2.4,9.6,3.8c0.9,2,1,2.3,1.6,2.3c0.5,0,0.6-0.6,0.6-0.9l0.2-5c0-1.3,0.1-1.7-0.6-1.7
		c-0.2,0-0.2,0-1.6,0.1c-1.5,0-4.2,0-9.8-0.2l-2.6-0.1c-4.6-0.2-7-0.3-8.1-0.4c-1.2-0.1-1.2-0.2-1.4-0.2c-0.4,0-1.1,0-1.1,0.7
		c0,0.8,0.7,0.9,1.9,1c2.7,0.3,2.7,1.7,2.6,4L322.7,654L322.7,654L322.7,654L322.7,654z M373.9,648c-0.4-6.1-6.3-8.4-9.4-9.5
		c-4.5-1.5-7.7-2.6-8-6.5c-0.1-2.1,1.1-5.3,5.5-5.6c4.5-0.3,5.7,2.7,6.5,4.8c0.7,1.6,0.9,2,1.4,1.9c0.8-0.1,0.7-0.5,0.6-1.7
		c-0.3-4.8-0.4-5.3-1-5.6c-0.8-0.3-4-1-7.2-0.8c-6.9,0.5-10.4,5.1-10,10.1c0.4,5.8,4.8,7.6,9.4,9.2c4,1.5,7.9,3.3,8.2,7.6
		c0.3,4.4-3.8,6.3-6,6.5c-3.9,0.3-7.8-2.9-9.2-7.6c-0.1-0.5-0.3-0.9-0.8-0.9c-0.7,0-0.7,0.8-0.6,1c0,2,0.2,4.7,0.2,4.9
		c0.1,1.4,0.2,2.1,0.8,2.5c1,0.6,4.5,1.9,8.8,1.6C370.2,659.3,374.3,654,373.9,648L373.9,648L373.9,648L373.9,648z M436,627.7
		c-2.4-9-12.3-14.1-22.1-11.5c-10.2,2.7-16.2,12.1-13.6,21.6c2.7,10,13.3,14.5,22.5,12.1C431.7,647.5,438.8,637.9,436,627.7
		L436,627.7L436,627.7L436,627.7z M429.8,629.6c2,7.6,0.4,16.8-7,18.8c-7.1,1.9-14.3-4.9-16.5-13.4c-2-7.5,0-15.3,7.4-17.2
		C422,615.5,428.1,623.4,429.8,629.6L429.8,629.6L429.8,629.6L429.8,629.6z M452.8,633.5c0.9,2.1,1.4,3.4-1,4.6
		c-1,0.5-1.8,0.9-1.5,1.6c0.3,0.8,1,0.5,1.4,0.3c1.7-0.7,4.2-2,5.9-2.7c1.7-0.7,4.4-1.6,6.1-2.4c0.4-0.2,1.1-0.4,0.8-1.1
		c-0.3-0.8-1-0.5-2.5,0.1c-2.4,0.8-3-0.7-3.8-2.6l-3.6-8.5c-1-2.4-1-2.4,2.7-3.9c1.3-0.5,4.5-1.9,6.3,0.5c0.2,0.2,1.2,1.5,1.4,1.7
		c0.2,0.3,0.6,0.7,1.1,0.5c0.6-0.3,0.3-0.9,0.2-1.2l-1.2-2.3c-0.6-1.1-0.9-2-1.1-2.4c-0.3-0.8-1.6-4.2-1.9-4.9
		c-0.2-0.5-0.5-0.8-1-0.6c-0.5,0.2-0.5,0.7-0.5,1.1c0.3,2.9,0.2,4.3-3.8,6c-0.8,0.3-2.3,1-3.1,1.2c-0.7,0.2-0.9,0.2-2-2.5l-2.8-6.7
		c-1-2.4-0.2-2.8,1.5-3.5c7.4-3.1,8.9-1.8,11.2,0.4c0.2,0.2,0.9,0.8,1.4,0.6c0.5-0.2,0.2-1,0.1-1.2l-2.3-5.3
		c-0.3-0.7-0.4-0.9-1.2-0.5c0,0-0.1,0.1-1.4,0.7c-1.3,0.6-3.9,1.8-9.1,4l-0.6,0.3c-5,2.1-7.4,3.1-8.8,3.6c-1.3,0.5-1.3,0.5-1.4,0.5
		c-0.3,0.1-1,0.4-0.7,1.1c0.3,0.7,1.1,0.4,2.2,0.1c2.6-0.9,3.1,0.4,4,2.5L452.8,633.5L452.8,633.5L452.8,633.5L452.8,633.5z
		 M501,600c1.2-0.8,1.4-0.9,2.8,0.2l5.5,4.2c0.2,0.1,0.9,0.7,1.2,1.1c0.4,0.7,0.2,1.2-0.9,2c-0.9,0.7-1.5,1.3-1.1,1.9
		c0.4,0.6,1,0.3,1.5,0c0.1-0.1,2.4-1.8,5.2-3.6c0.8-0.5,4.7-2.8,5.5-3.3c0.3-0.2,1-0.7,0.7-1.3c-0.4-0.6-0.9-0.4-1.8,0.1
		c-2,0.9-3.2,0.2-6.9-2.3l-18.4-12.7c-0.9-0.6-2.3-1.6-3.5-2.6c-1.9-1.4-2.2-1.7-2.7-1.3c-0.5,0.3-0.4,0.3,0.8,5.9
		c2.1,9.8,5,23.1,5.4,26.9c0.2,2.2-0.2,2.5-1.6,3.6c-0.7,0.6-1.2,1.1-0.9,1.7c0.4,0.7,1,0.3,1.3,0.1c0.6-0.4,3.2-2.3,3.7-2.6
		c1.3-0.9,4.1-2.4,4.6-2.7c1-0.7,1.6-1,1.2-1.7c-0.4-0.5-1-0.3-2.2,0.4c-1.1,0.6-2.3,1.3-3,0.1c-0.4-0.5-0.7-2-0.8-2.2l-1.6-5.9
		c-0.4-1.4-0.4-1.4,1-2.3L501,600L501,600L501,600L501,600z M494.9,601.7c-0.8,0.5-1.1,0.7-1.4,0.3c-0.2-0.3-0.4-0.9-0.4-1l-2.2-9.5
		l8.3,5.8c0.3,0.2,0.7,0.5,0.8,0.7c0.1,0.1,0.2,0.3-0.8,1L494.9,601.7L494.9,601.7L494.9,601.7L494.9,601.7z M532.4,553.2
		L532.4,553.2l16.4,16.8c1.8,1.8,2.7,2.9,1,4.7c-1.1,1.2-1.4,1.6-0.9,2.1c0.4,0.5,0.9,0.1,1.2-0.2c0.8-0.7,2.8-2.9,4.8-4.8
		c1.5-1.4,3.7-3.2,4.3-3.7c0.4-0.4,1-1,0.5-1.5c-0.4-0.4-1-0.2-1.8,0.6c-1.8,1.6-2.3,1.2-4.7-1.3l-16.3-16.4c-2-2-2.4-2.6-0.7-4.5
		c1-1.1,1.4-1.5,0.9-2c-0.5-0.5-1,0-1.5,0.4c-0.4,0.4-1.4,1.6-2.2,2.4c-0.9,0.8-2.6,2.1-3.5,2.9c-0.6,0.6-1,1.1-0.3,2.9l8.7,22
		l-22.2-10.3c-1.3-0.6-1.6-0.3-2,0.1c-0.5,0.4-1.2,1.4-2.6,2.7c-1.1,1-3.4,2.9-3.8,3.3c-0.6,0.6-0.7,1-0.4,1.3
		c0.4,0.4,0.9,0.5,2.3-0.8c1.8-1.6,1.9-1.7,3.7,0.2c4.9,5.2,15,17.8,15.3,18c2.5,2.9,2.1,3.7,1,5.1c-1,1.2-1.3,1.6-0.8,2.1
		c0.4,0.4,0.9,0.1,1.2-0.1c0.6-0.6,2-2.2,3.4-3.5c1.7-1.6,3.2-2.7,3.7-3.2c0.4-0.4,1.2-1.1,0.6-1.7c-0.5-0.6-1.2,0-2.1,0.9
		c-2,1.8-2.6,1.9-8.4-4.3c-3.8-4.1-7.8-8.9-11.6-13.6l0.1-0.1l25.7,11.8c0.9,0.4,1.4,0.5,1.8,0.1c0.4-0.4,0.3-0.9-0.3-2.2
		L532.4,553.2L532.4,553.2L532.4,553.2L532.4,553.2z M565.8,552.2c1.7,1.4,2.9,2.3,1.3,4.5c-0.6,1-1.1,1.6-0.5,2.1
		c0.6,0.5,1.1,0,1.4-0.4c0.2-0.3,0.5-0.7,1-1.4c0.5-0.7,1.3-1.8,2.7-3.5l0.4-0.5c0.2-0.3,1.9-2.2,3.9-4.6c2-2.4,4.5-5.3,6.2-7.5
		c1-1.2,0.9-2,0.1-2.7c-1.5-1.4-3.8-4-4.3-4.5c-0.3-0.2-0.7-0.4-1,0c-0.3,0.4-0.2,0.6,0.7,2.6c2.1,4.8,0,7.4-1.5,9.2
		c-2.9,3.6-4.1,4.1-7.1,1.6l-7.3-5.9c-1.3-1-1-1.4,0.6-3.4c2.8-3.5,3.8-4.6,7.8-2.9c1,0.4,1.4,0.4,1.7,0c0.4-0.5-0.2-1-0.4-1.2
		c-0.3-0.3-1.9-1.3-2.2-1.6c-0.9-0.8-5-4.6-5.6-5.1c-0.5-0.4-0.8-0.3-1,0c-0.2,0.2-0.3,0.5,0.1,1.1c1.6,2.6,2.2,3.7-1.6,8.4
		c-2,2.5-2.3,2.2-3.7,1.1l-6.1-5c-2.1-1.7-2.3-2.1-0.6-4.2c4.9-6,7.3-5.7,8.8-5.3c2.2,0.5,2.4,0.6,2.8,0.1c0.3-0.4-0.2-0.8-0.4-1
		l-3.9-3.1c-1-0.8-1.3-1.1-1.7-0.6c-0.1,0.1-0.1,0.2-0.9,1.3c-0.9,1.2-2.6,3.4-6.1,7.7l-1.6,2c-2.9,3.6-4.4,5.4-5.2,6.3
		c-0.8,0.9-0.9,0.9-0.9,1c-0.2,0.3-0.7,0.8-0.1,1.3c0.6,0.5,1.2,0,2-0.9c1.8-2,3-1.1,4.7,0.3L565.8,552.2L565.8,552.2L565.8,552.2
		L565.8,552.2z M586.9,524.6c1.9,1.2,3.1,2,1.9,4.3c-0.6,1-0.9,1.7-0.3,2.1c0.7,0.4,1-0.2,1.3-0.6c0.5-0.8,2.7-4.7,3.2-5.5
		c0.1-0.2,3.1-4.5,3.6-5.4c0.2-0.4,0.7-0.9,0-1.3c-0.7-0.4-1.1,0.2-1.8,1.2c-1.6,2.2-2.8,1.4-4.8,0.2l-8.3-5.2
		c-0.8-0.5-1-0.8-0.5-1.5c1.3-2.1,1.6-2.2,4.2-2l14,1c1.3,0.1,1.8,0.2,2.3-0.7c0.3-0.4,1.1-2.2,1.4-2.6c0.4-0.7,2.5-3.6,2.9-4.2
		c0.2-0.3,0.4-0.8-0.1-1.1c-0.6-0.4-0.9,0-2,1.4c-1,1.2-2.5,1.1-4.7,1l-10.7-0.5c-2.6-0.2-3.2,0.2-4,0.6c0.7-1.8,2.5-7.2-2.9-10.6
		c-1.6-1-7.7-3.8-12.8,4.3c-0.9,1.4-4.5,7.6-5.3,8.9c-0.3,0.6-1.9,2.7-2.2,3.2c-1,1.5-1.1,1.7-0.4,2.1c0.6,0.4,1.1-0.2,1.8-1.2
		c1.6-2.2,2.8-1.4,4.7-0.2L586.9,524.6L586.9,524.6L586.9,524.6L586.9,524.6z M569.9,507.2c-1.8-1.1-2.9-1.9-1.6-4
		c3.6-5.7,8.9-3.3,10.6-2.2c5.8,3.6,2.9,8.2,1.9,9.8c-1.4,2.3-1.5,2.2-3.1,1.2L569.9,507.2L569.9,507.2L569.9,507.2L569.9,507.2z
		 M587.9,475.5c-1.9-0.9-3.2-1.5-2.3-4c0.4-1.1,0.7-1.8,0-2.1c-0.7-0.3-1,0.3-1.2,0.7c-0.3,0.7-0.9,2.4-2.5,6
		c-1.4,3-2.4,4.7-2.9,5.7c-0.2,0.4-0.5,1,0.2,1.4c0.7,0.3,1.1-0.3,1.7-1.4c1.3-2.4,2.6-1.8,4.7-0.8l20.8,9.7c2,0.9,3.3,1.5,2.4,4.1
		c-0.4,1.1-0.7,1.8,0,2.1c0.7,0.3,1-0.3,1.2-0.7c0.2-0.5,1.2-3,2.5-5.9c1.5-3.3,2.5-4.8,3-5.8c0.2-0.4,0.5-1-0.2-1.4
		c-0.7-0.3-1.1,0.3-1.7,1.4c-1.3,2.4-2.6,1.8-4.7,0.8L587.9,475.5L587.9,475.5L587.9,475.5L587.9,475.5z M600.8,436
		c-1.5-0.3-2-0.2-3.3,1.9c-1.8,3.3-2.3,4.1-3.2,6.4c-4.9,13.3,2.1,22.8,9.2,25.4c6.5,2.4,18.5,0.3,23.2-12.6
		c1.9-5.2,1.5-9.2,1.3-10.2c-0.2-1.3-0.6-1.6-1.3-1.9l-4.2-2c-0.4-0.1-0.8-0.3-1.1,0.5c-0.2,0.5,0.4,1.2,0.6,1.4
		c3.2,3.6,5.2,6.9,3.5,11.6c-2.8,7.7-12.5,8.9-19.7,6.3c-6.5-2.4-13.3-9.2-10.3-17.6c1.7-4.7,4.8-5.7,8.2-6.6c1-0.3,1.2-0.5,1.4-0.9
		c0.2-0.6-0.1-0.7-0.6-0.9L600.8,436L600.8,436L600.8,436L600.8,436z M624,415.8c0.3-1.4,0.3-1.6,2-1.9l6.9-1.1
		c0.2-0.1,1.1-0.2,1.6-0.1c0.8,0.2,1,0.7,0.8,2.1c-0.1,1.1-0.1,2,0.6,2.1c0.7,0.1,0.9-0.5,1-1.1c0-0.2,0.4-3,1-6.2
		c0.2-0.9,1.3-5.3,1.4-6.2c0.1-0.3,0.2-1.2-0.5-1.4c-0.7-0.1-0.9,0.4-1.2,1.3c-0.7,2.1-2,2.4-6.5,3.3l-21.9,4.4
		c-1.1,0.2-2.7,0.5-4.3,0.8c-2.3,0.4-2.8,0.5-2.9,1.1c-0.1,0.5-0.1,0.5,4.7,3.5c8.6,5.3,20.1,12.4,23.1,14.8
		c1.7,1.4,1.6,1.9,1.5,3.7c-0.1,0.9-0.1,1.6,0.6,1.8c0.8,0.2,0.9-0.5,1-0.9c0.1-0.7,0.5-3.9,0.6-4.5c0.3-1.5,1.1-4.7,1.2-5.2
		c0.2-1.2,0.4-1.9-0.4-2c-0.6-0.1-0.9,0.5-1.2,1.9c-0.3,1.2-0.7,2.5-2,2.3c-0.6-0.1-2-0.9-2.1-0.9l-5.4-2.9c-1.3-0.7-1.3-0.7-1-2.3
		L624,415.8L624,415.8L624,415.8L624,415.8z M621,421.3c-0.2,1-0.2,1.3-0.8,1.2c-0.4-0.1-0.9-0.3-1-0.4l-8.4-5.1l9.9-2
		c0.4-0.1,0.8-0.2,1.1-0.1c0.2,0,0.4,0.1,0.1,1.3L621,421.3L621,421.3L621,421.3L621,421.3z M53.4,341.1c0,3.1,2.5,5.6,5.6,5.6
		s5.6-2.5,5.6-5.6c0-3.1-2.5-5.6-5.6-5.6S53.4,338,53.4,341.1L53.4,341.1L53.4,341.1z M619.6,339c0,3.1,2.5,5.6,5.6,5.6
		c3.1,0,5.6-2.5,5.6-5.6c0-3.1-2.5-5.6-5.6-5.6C622.1,333.4,619.6,335.9,619.6,339L619.6,339L619.6,339z M457.7,175.6
		c-1.1-2.5-3.8-3.5-8.1-2.9c-32.2,4.2-80.2,31.7-85.9,45.8c-2.5,6.1-1.6,11.6-0.8,16.1c1,6,1.1,7.8-3,9.5c-2.5,1-3.8,0.4-4.6-0.2
		c-2.4-1.8-3.8-6.8-3.2-11.7l0.2-1.3c0.6-4.1,1.5-11-2.2-15c-1.3-1.3-3.6-2.9-7.5-2.7c-4.6,0.3-6.6,2.7-7.8,4.1c0,0-0.1,0.1-0.2,0.2
		c-0.1-0.1-0.3-0.1-0.5-0.3c-3.8-2.4-8.4-1.5-12,2.4c-1.5,1.6-2.8,3.8-3.1,5.8l-1,2.1l-1.1,2.3h4.8c0.6,0.2,1.3,0.2,2.1,0h4.2
		c2.1,2,3.2,7.2,2.2,10.4c-0.8,2.5-4.3,5-8.9,4.8c-3.7-0.1-6.4-3.7-6.6-8.6c-0.1-2.6,0.5-4.3,1-6c1.5-4.4,2.1-7.9-2.9-16.1
		c-8.9-14.8-68.9-44-81.5-42.1c-3.4,0.5-4.3,2.7-4.5,3.7c-0.4,1.6-0.6,2.9-0.6,4.1c0,3.8,1.9,5.6,4,7.2c0.7,0.5,1.2,1,1.7,1.7
		c-0.5,1.8-0.8,3.5-0.8,5.1c0,7.9,5.3,13.6,10.5,19.2c0,0,2.3,2.5,2.7,2.9c0,0.3-0.2,0.9-0.3,1.4c-0.3,1.5-0.6,3-0.6,4.6
		c0,5,2.7,10.9,14.2,18l0,0c0.1,0,0.2,0.1,0.2,0.1c0.7,0.4,1.4,0.8,2.1,1.2c0.2,0.2,0.2,1,0.2,1.6c0.1,5.7,1.6,11.8,17,18.6l0,0.4
		c0.1,0,0.1,0,0.2,0c-0.5,1.4-1.4,3.7-1.4,6.3c0,3.1,1.3,6.4,6,8.8c-0.1,0.5-0.1,1-0.2,1.5c-0.3,1.5-0.6,3.3-0.6,5.2
		c0,2.4,0.5,4.9,2.2,7c1.7,2.1,4.4,3.4,8,3.9c0,0.4-0.1,0.9-0.1,1.5c0,3.3,1,8.6,9.1,9.9c0.6,1.5,1.8,4.2,5,5.4
		c2,0.7,4.4,0.7,7.2-0.1c-0.4,1.2-0.7,2.5-0.7,3.7c0,1.4,0.4,2.7,1.3,3.9c0.3,0.4,0.7,0.7,1.1,1c-8.1,0.2-10.6,3.3-12.4,6.5
		c-0.8,1.4-0.8,1.5-2.8,1.5l-6.8,0l-10.3,0c-11.7,0.3-11.6,8.5-11.5,14l0,1.6h8l0-1.7c-0.1-5.8-0.1-5.8,3.7-5.9l10.1,0l6.8,0
		c6.1,0,8.2-2.8,9.8-5.5c0.9-1.5,1.4-2.5,6.2-2.5h1c-6.3,8.1-2.2,12.6-0.7,14.2c2,2.1,5,4,8.9,2.3c0.7,1.5,1.7,2.7,3,3.4
		c2.6,1.4,5.4,0.3,7.1-0.6c1.9,2.3,4,3.5,6.1,3.7c3.3,0.3,5.7-2,7-3.4c2.8,1.3,5.2,1.7,7.3,0.7c2.1-1,3.1-2.9,3.6-4.8
		c5.3,1.8,8.1-1.2,9-2.4c1.3-1.7,1.9-4.1,1.9-6.5c0-2.5-0.7-5-2-6.7h0.7c4.8,0,5.4,0.9,6.2,2.5c1.5,2.7,3.6,5.5,9.8,5.5l6.8,0
		l10.1,0c3.8,0.1,3.8,0.1,3.7,5.9l0,1.7h8l0-1.6c0.1-5.5,0.1-13.7-11.5-14l-10.3,0l-6.8,0c-2,0-2-0.1-2.8-1.5
		c-1.9-3.3-4.4-6.5-13.2-6.5h-1.1c0.3-0.2,0.6-0.4,0.8-0.6c0.9-0.9,1.2-2,1.2-3.3c0-0.9-0.2-1.9-0.4-2.9c3.1,1.6,5.9,2.2,8.3,1.6
		c4.5-1.1,6.4-5.2,7.7-7.9c0,0,0.5-0.9,0.7-1.4c8.2-1.6,9.5-6.7,9.5-10.3c0-0.9-0.1-1.7-0.1-2.3c0,0,0-0.5,0-1
		c5.5-2.2,6.8-5.6,6.8-8.7c0-1.6-0.3-3.1-0.6-4.3c-0.3-1.3-0.5-2.2-0.5-3c0-0.7,0.2-1.1,0.5-1.6c3.2-3.6,4-7,4-9.8
		c0-1.9-0.4-3.4-0.6-4.6c0,0-0.1-0.4-0.2-0.8c20.3-5.9,20.8-16.6,21-21.7c0,0,0.1-0.7,0.1-1.2c0.6-0.4,1.3-0.9,1.8-1.4l-0.2-0.2
		c13.4-10.9,15.9-18,15.9-23.9c0-0.4,0-0.8,0-1.2c0,0,0-0.3,0-0.6c8.1-8.4,8.7-15.8,8.9-19.8c0-0.6,0.1-1.3,0.2-1.6
		c2.4-2,6.6-6.1,6.6-10C458.1,176.9,458,176.3,457.7,175.6L457.7,175.6L457.7,175.6z M328,223c0.2-0.1,0.4-0.3,0.6-0.4
		c0.8-0.3,1.3-0.3,2,0.1c5.2,3.2,7.8,0.2,9-1.3c0.9-1.1,1.4-1.7,3.2-1.8c1.8-0.1,2.3,0.5,2.5,0.6c1.6,1.8,0.9,7.2,0.6,9.8l-0.2,1.4
		c-0.7,6.1,0.8,13.8,5.7,17.5c0.1,0.1,0.3,0.2,0.5,0.3c-0.9,1.6-3.4,3.9-7.1,5c-3.5,1.1-9.5,1.5-14.2-5.4c2.7-1.6,4.7-4,5.6-6.8
		c0.5-1.4,0.7-3.1,0.7-4.8c0-4.6-1.6-9.7-4.9-12.6C330.7,223.8,329.4,223.3,328,223L328,223L328,223z M320.9,251.4
		c1.2,0,2.4,0,3.5-0.2c5.9,9.9,15.1,11.4,22.2,9.3c5.5-1.7,9.9-5.5,11.5-9.4c1.1-0.1,2.3-0.3,3.5-0.8c-0.5,6.4-3.3,11.5-8.2,14.8
		c-6.6,4.4-16.2,4.6-23.4,0.5C324.7,262.5,321.6,257.6,320.9,251.4C320.8,251.4,320.8,251.4,320.9,251.4L320.9,251.4L320.9,251.4z
		 M308.1,236.6c0.2,5.4,2.5,9.9,6,12.5c0.2,9.5,4.7,17.5,12.7,22c9.3,5.3,21.4,5,30.1-0.8c7.9-5.2,11.7-13.9,11-24.7
		c1.3-1.9,1.7-4.1,1.7-6.4c0-2-0.3-3.9-0.6-5.8c-0.3-1.8-0.6-3.6-0.7-5.5c10,18.9,9.5,34.8-1.5,45.1c-12.3,11.5-35.3,12.5-49.3,2.2
		c-11.6-8.6-14.8-23.3-9.4-41.3C308.1,234.8,308.1,235.7,308.1,236.6L308.1,236.6L308.1,236.6z M349.5,304.2c0-14.2,0.7-16.6,5-16.8
		c1.2-0.1,2.2,0.3,3,1.1c1.4,1.3,2,3.4,2,4.5v16h-3v11h-3.9v-11h-2.9C349.5,307.8,349.5,306.3,349.5,304.2L349.5,304.2L349.5,304.2z
		 M320.8,304.5c0-14.2,0.7-16.6,5-16.8c1.2-0.1,2.2,0.3,3,1.1c1.4,1.3,2,3.4,2,4.5l0.2,7.7c0.1,2.7,0.2,5.4,0.2,8H328v11.1h-4.1V309
		h-2.9C320.9,307.9,320.8,306.5,320.8,304.5L320.8,304.5L320.8,304.5z M344.3,288.8c-0.5,1.8-0.8,3.9-1,6.1h-6.1l0-1.6
		c0-1.3-0.3-3-1-4.6C338.9,288.9,341.6,288.9,344.3,288.8L344.3,288.8L344.3,288.8z M310.2,277.4L310.2,277.4L310.2,277.4
		C310.2,277.4,310.2,277.4,310.2,277.4L310.2,277.4L310.2,277.4z M234,182.2c-1-0.7-1.5-1.1-1.5-2.2c0-0.4,0.1-0.9,0.2-1.4
		c9.8-1,67.2,27,74.5,39.1c0.1,0.2,0.2,0.4,0.4,0.6c-6.1,12.7-8.4,23.1-8.4,31.6c-12.5-14.8-13.2-28.9-12.2-36.5
		c0.1-0.9,0.3-2.6-1.3-3.7l-1.6-1.1l-1.7,0.9c-2.5,1.2-8.9,1.8-17.1-4.1c-1.2-0.8-3.1-3.2-5.1-5.7c-6.1-7.4-14.3-17.4-24.3-15.9
		C235.2,183.1,234.6,182.6,234,182.2L234,182.2L234,182.2z M245.2,207.7c-4.6-5-7.7-8.9-7.7-13.7c0-1.2,0.2-2.5,0.6-3.9
		c6.1,0.2,12.4,7.9,17.1,13.7c2.5,3,4.5,5.5,6.3,6.8c8,5.8,14.5,6.5,18.8,6c0,0.6-0.1,1.1-0.1,1.7c0,1.7,0.1,3.6,0.3,5.6
		c-3.4,0.5-9.9-1-13-2.5c-1.9-0.9-3.9-2.8-6.1-4.8C257.4,212.6,252.2,207.8,245.2,207.7L245.2,207.7L245.2,207.7z M260.6,234.6
		c-9.1-5.6-10.9-9.6-10.9-12.6c0-1.1,0.2-2,0.4-2.9c0.2-0.9,0.5-2,0.5-3.1c0,0,0,0,0,0c2.3,1.4,4.4,3.3,6.4,5.3c2.5,2.4,5,4.7,7.7,6
		c2.7,1.3,10.9,3.9,16.9,2.9c0.6,2.4,1.4,5,2.5,7.7C280,238.7,266.9,237,260.6,234.6L260.6,234.6L260.6,234.6z M278.9,255.6
		c-12.4-5.6-12.4-9.6-12.5-12.6c0-0.1,0-0.2,0-0.2c7.2,1.5,16.1,2.4,20.6,0.8c1,1.7,2,3.5,3.2,5.2
		C287.7,252.4,282.4,255.1,278.9,255.6L278.9,255.6L278.9,255.6z M282.9,270l-0.1,0.2c-0.5-0.6-0.8-1.2-0.8-2c0-1.1,0.5-2.3,1.1-4
		c0.3-0.8,0.8-2.1,0.9-3.5c3.7-1.4,7.6-3.8,10.3-6.9c1.8,2.1,3.7,4.2,5.9,6.2c-0.5,1.1-2.2,3.2-5.7,5.7
		C290.2,269,285.3,270.7,282.9,270L282.9,270L282.9,270z M290.9,288.4c-1.1-0.3-2.2-0.7-2.8-1.5c-0.6-0.7-0.8-1.8-0.8-3
		c0-1.3,0.3-2.8,0.5-4.2c0.2-1,0.4-2.2,0.4-3.3c0-0.1,0-0.3,0-0.4c4.4-1.2,8.5-3.8,10-4.8c1.1-0.8,3-2.2,4.7-4c0.5,1,1,2,1.6,2.9
		l-0.1,0.1l-0.3-0.6c0.2,1.2-1.6,6.3-5.8,11.9C295.3,285.6,292.6,287.8,290.9,288.4L290.9,288.4L290.9,288.4z M298.8,298.9l0.1,0.5
		c-1.2-0.6-1.5-1.5-1.5-2.8c0-0.4,0-0.9,0.1-1.5c0-0.5,0.1-0.9,0.1-1.4c0-0.6-0.1-1.3-0.2-1.9c5-4,9.5-11,11.6-15.8
		c0.4,0.4,0.8,0.8,1.1,1.2c0.5,1.2-0.4,7-4.2,13.7C302.7,296.5,299.9,298.8,298.8,298.9L298.8,298.9L298.8,298.9z M307.3,305.6
		c-0.5-0.2-0.8-0.8-1.3-1.9c-0.2-0.4-0.4-0.9-0.7-1.5c4.7-4.3,8.6-12.3,10.3-18.1c0.2-0.8,0.4-1.5,0.5-2.2c0.9,0.6,1.8,1.1,2.7,1.6
		c-4.3,3.7-4.4,11.2-4.4,20.3C309.6,306.1,307.8,305.8,307.3,305.6L307.3,305.6L307.3,305.6z M341.1,342.6c-0.4-1.6-0.5-4.8-0.5-7.2
		c-0.1-5.7-0.2-12.6-3.6-17.3c0.1-0.4,0.2-0.8,0.2-1.3c0.5-4.8,0.4-10.3,0.2-15.6h5.7c0,1,0,1.9,0,2.9c0,6.3,0.3,8.2,0.7,10.2
		l0.3,1.7c0.1,0.7,0.3,1.4,0.7,2.1c-2.1,3.6-2.3,9.4-2.6,14.8C342,336,341.8,340.6,341.1,342.6L341.1,342.6L341.1,342.6z
		 M378.6,304.1c-0.9,1.9-1.9,4.1-3.4,4.4c-0.8,0.2-3,0.2-7.8-3.5c-0.5-0.4-1-0.7-1.5-0.9V293c0-2.6-1.2-6.3-3.8-8.9
		c0.4-0.2,0.8-0.4,1.2-0.6c1.1,3.2,3.3,6.5,4.1,7.8c1.9,2.8,6.1,8.4,11.7,11.6C378.9,303.3,378.7,303.7,378.6,304.1L378.6,304.1
		L378.6,304.1z M385.7,298.8c-8.6-2.1-16.7-16-16.7-18.8l0,0.2l-0.3-0.1c0.9-0.7,1.8-1.5,2.7-2.3c0.7-0.6,1.4-1.4,2.2-2.3
		c4,1.7,13.5,11.5,14.4,15.3l0.1,0c0,0.3,0,0.5,0,0.8c0,0.7,0.1,1.3,0.1,1.8c0.1,0.7,0.1,1.4,0.1,2
		C388.2,297,387.7,298.1,385.7,298.8L385.7,298.8L385.7,298.8z M392.5,285.8c-3.1-5.2-9.7-12.3-15.3-15.4c0.5-0.8,0.9-1.7,1.4-2.6
		c1.9-0.1,4.9,0.8,7.8,2.4c3.8,2,6.4,4.5,7.2,5.9c0,1.6,0.4,3.1,0.6,4.4c0.3,1.2,0.5,2.1,0.5,2.8C394.8,284.4,394.2,285,392.5,285.8
		L392.5,285.8L392.5,285.8z M396.4,269.4c-2-1.9-4.6-3.7-6.9-4.9c-2-1.1-5.3-2.6-8.6-3c0.1-0.5,0.2-1,0.3-1.5
		c0.9-0.9,1.8-1.7,2.7-2.6c4.3-0.6,11.2,1.2,13.7,3c0.1,0.4,0.2,0.8,0.2,1.1c0.2,1.1,0.5,2.1,0.5,3.2
		C398.2,266.1,397.8,267.7,396.4,269.4L396.4,269.4L396.4,269.4z M401.5,253.2c-0.8,0.2-1.5,0.6-2.1,0.9c-2.9-1.6-6.6-2.6-10.2-3
		c2.4-3.1,4.5-6.4,6.2-9.7c4.3,0.8,14.4,0.7,22.8-2.1C417.8,243.7,415.5,249.3,401.5,253.2L401.5,253.2L401.5,253.2z M420.5,231.4
		c-0.1,0.1-0.2,0.2-0.3,0.2c-6.2,3.4-16.9,4.2-22,3.7c1-2.6,1.9-5.2,2.5-7.9c5.8,1,12.8-1.2,15.8-4.4c4.1-4.3,13.9-11.3,19.5-12.7
		c0,0.2,0,0.3,0,0.5C436,214.2,434.8,220.3,420.5,231.4L420.5,231.4L420.5,231.4z M444.9,188.8c-0.2,3.5-0.6,8.6-6.5,15
		c-10.5-0.7-26.4,14.7-26.6,14.8c-1.5,1.6-6.4,3.1-10,2.5c0.3-2.1,0.4-4.2,0.4-6.4c4.9,0.1,11.8-2,19.4-7.5c1.8-1.3,3.7-3.5,5.9-6.1
		c4.7-5.4,11-12.7,17.3-12.5C444.9,188.7,444.9,188.8,444.9,188.8L444.9,188.8L444.9,188.8z M447.5,182.5c-10.3-2-19,7.8-24.7,14.5
		c-1.9,2.2-3.7,4.2-4.8,5.1c-9.2,6.6-16,6.8-17.5,6l-1.6-0.8l-1.5,1c-1.6,1-1.5,2.6-1.4,3.6c0.7,13.5-4.3,26.8-14,38.1
		c-0.5-8.4-3.6-18.7-11.2-31c8-11.3,48.8-35.9,79.8-40c0.2,0,0.2,0,0.4,0C450.1,180,448.9,181.3,447.5,182.5L447.5,182.5
		L447.5,182.5z M320,331.3c1.9-3.2,4.6-5.2,6.1-4.3c1.5,0.8,1.1,4.1-0.8,7.4c-1.9,3.2-4.6,5.2-6.1,4.3
		C317.7,337.9,318.1,334.6,320,331.3L320,331.3L320,331.3L320,331.3z M329.5,336.2c0.9-3.2,2.6-5.5,3.8-5.1c1.2,0.4,1.5,3.4,0.6,6.6
		c-0.9,3.2-2.6,5.5-3.8,5.1C329,342.4,328.7,339.4,329.5,336.2L329.5,336.2L329.5,336.2L329.5,336.2z M361.7,330.9
		c-1.8-3.3-4.5-5.3-5.9-4.4c-1.4,0.8-1.1,4.2,0.8,7.5c1.8,3.3,4.5,5.3,5.9,4.4C363.9,337.6,363.5,334.2,361.7,330.9L361.7,330.9
		L361.7,330.9L361.7,330.9z M352.6,336.3c-0.9-3.3-2.5-5.6-3.7-5.2c-1.2,0.4-1.5,3.5-0.6,6.8c0.8,3.3,2.5,5.6,3.7,5.2
		C353.1,342.6,353.4,339.6,352.6,336.3L352.6,336.3L352.6,336.3L352.6,336.3z M374.5,401.4l16.8-5l-1.4-4.8l-16.6,5
		c0-0.4,0-0.8,0-1.2c0.1-5.8,5.3-8.5,16.8-8.5l2.4,0l0-8.4l0-3.6l-2.4,0l-104.8,0l0.6,2.9c1.6,7.6,10.7,13.7,21.1,14.2l2.1,0.1
		c4.5,0.1,11.2,0.4,13.3,2.6c1.4,1.6,1.8,4.5,0,6.7c-0.5,0.4-2.8,1.2-11.7,1c-2.1,0-2.6,0-3.4,0.7c-0.7,0.7-0.7,0.7-0.7,10l0,2.4
		l34.7,0l1.3,4.4l9.3-2.8l-0.5-1.6l32.2,0l0-6.4l0-4.2l-2-0.3C378.4,404,375.9,403.5,374.5,401.4L374.5,401.4z M368.5,398l-20.5,6.2
		l-2.5-8.3l-9.3,2.8l3.6,11.9c-14.1,0-26.5,0-28.4,0c0-1.4,0-2,0-3.4c7.6,0.1,12.7-0.4,14.7-2.7c1.6-1.9,2.3-4.2,2.3-6.3
		c0-2.6-1-5-2.5-6.7c-3.5-3.8-10.8-4-16.7-4.2l-2-0.1c-6.5-0.3-12.6-3.4-15.3-7.5c6.7,0,91.4,0,95.8,0c0,0.8,0,1.3,0,2.4
		c-6.6,0.2-19,1.6-19.2,13.2c0,0.2,0,0.3,0,0.5C368.4,396.6,368.4,397.3,368.5,398L368.5,398z M349.4,409l20.3-6.1
		c2,4.1,5.7,5.3,8.9,6c0,0,0,0.9,0,1.7c-1.9,0-14.6,0-28.8,0L349.4,409L349.4,409z M357.5,422.8h74.9c0-1.7,0-3.5,0-5.2
		c0-20.5,0-36.7,0-39.7c0,0,0-0.1,0-0.1c0-4.3,1.6-8.1,5.1-11.7c-19.8,0-173.7,0.1-192.7,0.2c3.9,4,5.8,7.9,5.8,11.7v44.9h96.2
		H357.5L357.5,422.8z"/>
</g>
</svg>
